<?xml version="1.0" standalone="no"?>
<!DOCTYPE svg PUBLIC "-//W3C//DTD SVG 20010904//EN"
 "http://www.w3.org/TR/2001/REC-SVG-20010904/DTD/svg10.dtd">
<svg version="1.0" xmlns="http://www.w3.org/2000/svg"
 width="260.000000pt" height="260.000000pt" viewBox="0 0 260.000000 260.000000"
 preserveAspectRatio="xMidYMid meet">
<metadata>
Created by potrace 1.11, written by Peter Selinger 2001-2013
</metadata>
<g transform="translate(0.000000,260.000000) scale(0.100000,-0.100000)"
fill="#000000" stroke="none">
<path d="M537 1834 c-58 -63 -77 -90 -72 -102 4 -9 9 -42 10 -72 1 -30 4 -55
5 -55 1 0 3 -22 5 -50 1 -27 4 -50 5 -50 1 0 3 -22 4 -50 1 -27 4 -54 7 -60 3
-5 5 -31 4 -57 -1 -27 1 -48 5 -48 4 0 6 -23 5 -50 -1 -28 1 -53 5 -55 4 -3 7
-30 6 -60 -1 -30 1 -55 5 -55 4 0 8 -19 8 -42 1 -58 6 -97 14 -104 3 -3 356
-6 783 -6 l778 0 74 79 c41 43 84 92 96 108 l23 30 -37 388 c-20 213 -39 389
-42 392 -2 3 -39 -34 -80 -81 -69 -77 -76 -88 -73 -122 2 -20 4 -37 5 -37 1 0
6 -57 14 -170 2 -27 4 -51 6 -52 1 -2 3 -24 4 -50 1 -27 4 -52 7 -58 3 -5 5
-34 4 -62 -1 -29 1 -53 5 -53 5 0 6 -88 1 -110 0 -3 -59 -6 -131 -6 l-130 -1
-1 36 c-1 20 0 51 1 68 1 18 -1 37 -5 43 -3 6 -8 45 -10 88 -3 72 -11 174 -14
180 0 1 -29 -20 -63 -46 -73 -57 -103 -74 -112 -65 -10 11 -36 12 -36 3 0 -5
-8 -9 -17 -8 -54 1 -173 -61 -173 -91 0 -6 -4 -11 -10 -11 -20 0 -42 -65 -44
-130 l-1 -66 -92 0 c-102 1 -98 -2 -93 69 1 15 -3 27 -8 27 -5 0 -8 20 -6 45
3 25 1 45 -4 45 -4 0 -7 22 -6 50 2 27 -1 52 -6 55 -4 3 -6 14 -3 25 9 35 -17
22 -93 -47 -64 -57 -74 -70 -70 -92 3 -14 8 -60 12 -101 l6 -75 -154 0 -153 0
-37 375 c-20 206 -37 387 -37 403 -1 15 -4 27 -8 26 -5 0 -43 -39 -86 -85z
m1121 -616 c18 -18 14 -52 -8 -78 -11 -13 -20 -20 -20 -15 0 4 -7 2 -15 -5
-12 -10 -15 -10 -15 0 0 8 -3 10 -7 7 -11 -12 -33 15 -33 41 0 50 65 83 98 50z"/>
<path d="M2480 1886 c-19 -17 -35 -34 -35 -37 0 -4 -19 -27 -42 -54 -38 -42
-56 -85 -35 -85 4 0 8 -26 8 -57 2 -98 7 -158 12 -168 4 -5 7 -35 8 -65 1 -30
2 -55 4 -55 1 0 3 -22 5 -50 1 -27 4 -50 5 -50 1 0 4 -25 6 -55 2 -30 6 -82 9
-115 3 -33 6 -84 7 -112 2 -29 8 -55 14 -57 6 -2 44 31 83 74 l72 79 -36 363
c-20 200 -38 388 -41 418 -3 30 -6 56 -7 57 -1 1 -18 -13 -37 -31z"/>
<path d="M1557 1746 c-14 -12 -26 -28 -27 -36 -12 -83 50 -139 121 -110 35 15
51 41 52 85 2 68 -92 107 -146 61z"/>
<path d="M966 1657 c-34 -34 -35 -86 -2 -123 30 -35 92 -38 127 -5 25 23 33
88 13 108 -7 7 -14 18 -16 24 -2 6 -25 13 -50 16 -40 5 -50 2 -72 -20z"/>
<path d="M225 1385 c-22 -24 -45 -44 -51 -45 -17 0 -64 -62 -56 -74 3 -6 6
-21 7 -33 0 -12 3 -24 7 -28 4 -4 4 -13 1 -21 -3 -8 -2 -22 2 -31 13 -30 21
-210 11 -253 -12 -51 -58 -130 -100 -168 -24 -22 -41 -43 -38 -46 16 -17 93
-4 145 24 116 62 155 126 164 277 7 123 -25 443 -45 443 -4 0 -25 -20 -47 -45z"/>
</g>
</svg>
